<svg width="20" height="20" viewBox="0 0 20 20" fill="none" xmlns="http://www.w3.org/2000/svg">
<path fill-rule="evenodd" clip-rule="evenodd" d="M7.59997 2.7999C4.94901 2.7999 2.79999 4.94894 2.79999 7.5999C2.79999 10.2509 4.94901 12.3999 7.59997 12.3999C10.2509 12.3999 12.4 10.2509 12.4 7.5999C12.4 4.94894 10.2509 2.7999 7.59997 2.7999ZM0.399994 7.5999C0.399994 3.62345 3.62353 0.399902 7.59997 0.399902C11.5764 0.399902 14.7999 3.62345 14.7999 7.5999C14.7999 9.1549 14.307 10.5948 13.4689 11.7717L19.2485 17.5514C19.7171 18.02 19.7171 18.7798 19.2485 19.2484C18.7798 19.7171 18.02 19.7171 17.5514 19.2484L11.7718 13.4688C10.5948 14.307 9.15496 14.7999 7.59997 14.7999C3.62353 14.7999 0.399994 11.5764 0.399994 7.5999Z" fill="#9CA3AF"/>
</svg>
